<?xml version="1.0" encoding="utf-8"?>
<!-- Generator: Adobe Illustrator 24.3.0, SVG Export Plug-In . SVG Version: 6.00 Build 0)  -->
<svg version="1.1" id="Layer_1" xmlns="http://www.w3.org/2000/svg" xmlns:xlink="http://www.w3.org/1999/xlink" x="0px" y="0px"
	 viewBox="0 0 1080 1080" style="enable-background:new 0 0 1080 1080;" xml:space="preserve">
<style type="text/css">
	.st0{fill:#0062A5;}
	.st1{fill:#FC8A1A;}
</style>
<g>
	<g>
		<path class="st0" d="M799,971.49H131.82c-53.82,0-97.6-43.78-97.6-97.6V206.71c0-53.82,43.78-97.6,97.6-97.6H799
			c53.82,0,97.61,43.78,97.61,97.6v667.18C896.61,927.71,852.82,971.49,799,971.49z M131.82,170.88
			c-19.75,0-35.83,16.07-35.83,35.83v667.18c0,19.75,16.07,35.83,35.83,35.83H799c19.76,0,35.83-16.07,35.83-35.83V206.71
			c0-19.75-16.07-35.83-35.83-35.83H131.82z"/>
	</g>
	<g>
		<path class="st0" d="M573.08,268.97h454.82c10.33,0,18.71,8.38,18.71,18.71v91.58c0,10.33-8.38,18.71-18.71,18.71H573.08
			c-10.33,0-18.71-8.38-18.71-18.71v-91.58C554.37,277.35,562.74,268.97,573.08,268.97z"/>
	</g>
	<g>
		<path class="st0" d="M573.08,475.8h454.82c10.33,0,18.71,8.38,18.71,18.71v91.58c0,10.33-8.38,18.71-18.71,18.71H573.08
			c-10.33,0-18.71-8.38-18.71-18.71v-91.58C554.37,484.18,562.74,475.8,573.08,475.8z"/>
	</g>
	<g>
		<path class="st0" d="M573.08,682.63h454.82c10.33,0,18.71,8.38,18.71,18.71v91.58c0,10.33-8.38,18.71-18.71,18.71H573.08
			c-10.33,0-18.71-8.38-18.71-18.71v-91.58C554.37,691,562.74,682.63,573.08,682.63z"/>
	</g>
	<g>
		<g>
			<path class="st1" d="M439.96,513.33H208.67c-11.05,0-20.02-8.96-20.02-20.02V262.03c0-11.05,8.96-20.02,20.02-20.02h231.29
				c11.05,0,20.02,8.96,20.02,20.02v231.29C459.98,504.37,451.01,513.33,439.96,513.33z"/>
		</g>
		<g>
			<path class="st1" d="M439.96,838.58H208.67c-11.05,0-20.02-8.96-20.02-20.02V587.27c0-11.05,8.96-20.02,20.02-20.02h231.29
				c11.05,0,20.02,8.96,20.02,20.02v231.29C459.98,829.62,451.01,838.58,439.96,838.58z"/>
		</g>
	</g>
</g>
</svg>
